<svg width="214" height="77" viewBox="0 0 214 77" fill="none" xmlns="http://www.w3.org/2000/svg">
<rect x="90" y="6" width="3" height="65" fill="#303030"/>
<path d="M128.12 40.32C134.6 40.32 139.44 38.72 139.44 32C139.44 25.28 134.52 24 128.6 24H118.8V52H123.32V40.28C125.28 40.32 127.04 40.32 128.12 40.32ZM123.32 36.44V27.92H128.04C131.96 27.92 135.04 27.96 135.04 31.96C135.04 36.12 131.68 36.44 128.04 36.44H123.32ZM143.102 52H162.422V47.84H147.502V39.72H161.222V35.56H147.502V28.16H162.222V24H143.102V52ZM166.539 52H185.859V47.84H170.939V39.72H184.659V35.56H170.939V28.16H185.659V24H166.539V52ZM206.057 39.68C204.977 39 203.217 39.36 201.937 39.36V38.56C203.217 38.56 204.897 38.72 206.057 38.24C208.697 37.16 210.737 35.56 210.737 31.84C210.737 25.28 205.617 24 199.457 24H189.977V52H194.377V40.88C195.377 40.88 197.377 40.92 198.337 40.92C201.937 40.92 203.937 41.36 205.057 45.32C205.217 45.88 205.937 48.48 206.817 52H211.417C211.417 52 209.657 46.6 209.257 45C208.577 42.28 207.617 40.6 206.057 39.68ZM194.377 27.28H199.217C203.137 27.28 206.217 27.88 206.217 31.92C206.217 36 202.857 37.08 199.217 37.08H194.377V27.28Z" fill="#303030"/>
<path d="M33.5254 2L2.1864 20.1122V56.3365L33.5254 74.4509L64.8643 56.3365V20.1122L33.5254 2Z" stroke="#303030" stroke-width="3" stroke-miterlimit="10"/>
<path d="M33.4794 14.0625V2.35464" stroke="#303030" stroke-width="3" stroke-miterlimit="10"/>
<path d="M33.4794 74.1953V38.199" stroke="#303030" stroke-width="3" stroke-miterlimit="10"/>
<path d="M64.8689 56.4931V20.1121" stroke="#303030" stroke-width="3" stroke-miterlimit="10"/>
<path d="M54.3696 62.3608V13.8529" stroke="#303030" stroke-width="3" stroke-miterlimit="10"/>
<path d="M43.9257 19.944V7.94603" stroke="#303030" stroke-width="3" stroke-miterlimit="10"/>
<path d="M43.9257 68.3782V32.0687" stroke="#303030" stroke-width="3" stroke-miterlimit="10"/>
<path d="M2.19788 20.1306L33.5368 2.01843" stroke="#303030" stroke-width="3" stroke-miterlimit="10"/>
<path d="M33.5068 38.2473L64.9999 20.0546" stroke="#303030" stroke-width="3" stroke-miterlimit="10"/>
<path d="M2.1864 56.3388L12.5775 50.3352" stroke="#303030" stroke-width="3" stroke-miterlimit="10"/>
<path d="M43.9532 20.1467L54.579 14.0049" stroke="#303030" stroke-width="3" stroke-miterlimit="10"/>
<path d="M23.0813 32.2092L43.9532 20.1467" stroke="#303030" stroke-width="3" stroke-miterlimit="10"/>
<path d="M2.08276 44.3454L12.6786 38.222" stroke="#303030" stroke-width="3" stroke-miterlimit="10"/>
<path d="M33.5068 14.1085L43.9854 8.05197" stroke="#303030" stroke-width="3" stroke-miterlimit="10"/>
<path d="M2.08508 32.2691L33.5069 14.1085" stroke="#303030" stroke-width="3" stroke-miterlimit="10"/>
<path d="M33.5253 74.4486L2 56.2282" stroke="#303030" stroke-width="3" stroke-miterlimit="10"/>
<path d="M33.4817 38.199L2.1864 20.1121" stroke="#303030" stroke-width="3" stroke-miterlimit="10"/>
<path d="M64.8642 56.3388L54.1993 50.1739" stroke="#303030" stroke-width="3" stroke-miterlimit="10"/>
<path d="M23.1457 44.3016L2.1748 32.1792" stroke="#303030" stroke-width="3" stroke-miterlimit="10"/>
<path d="M33.4702 50.2684L23.1458 44.3016" stroke="#303030" stroke-width="3" stroke-miterlimit="10"/>
<path d="M33.479 50.2728L33.4701 50.2684" stroke="#303030" stroke-width="3" stroke-miterlimit="10"/>
<path d="M54.3927 62.3608L43.7946 56.2351" stroke="#303030" stroke-width="3" stroke-miterlimit="10"/>
<path d="M43.9233 68.3828L2.15186 44.2417" stroke="#303030" stroke-width="3" stroke-miterlimit="10"/>
</svg>
